<svg xmlns="http://www.w3.org/2000/svg" width="17" height="20" viewBox="0 0 17 20">
    <path fill="#2B3954" fill-rule="nonzero" d="M11.695 19.343l-3.78-3.794a.454.454 0 0 1 0-.642l.742-.742a.454.454 0 0 1 .648.007l1.804 1.936V.575c0-.25.203-.454.453-.454h.908c.25 0 .453.203.453.454v15.533l1.804-1.936a.454.454 0 0 1 .648-.007l.742.742a.454.454 0 0 1 0 .642l-3.78 3.794a.454.454 0 0 1-.642 0zM4.437.253L.657 4.049a.454.454 0 0 0 0 .642l.742.742c.18.18.472.176.648-.007L3.85 3.49v15.533c0 .25.203.454.453.454h.908c.25 0 .453-.203.453-.454V3.49L7.47 5.425a.454.454 0 0 0 .648.007l.742-.742a.454.454 0 0 0 0-.642L5.08.254a.454.454 0 0 0-.642 0z"/>
</svg>
