<svg id="Layer_1" data-name="Layer 1" xmlns="http://www.w3.org/2000/svg" viewBox="0 0 53.21 53.21"><defs><style>.cls-1{fill:#f6f6f6;}.cls-2{fill:#1965e9;}</style></defs><title>dollar</title><circle class="cls-1" cx="26.6" cy="26.6" r="26.6"/><path class="cls-2" d="M27.88,25.16H25.33a1.88,1.88,0,0,1,0-3.76h5.09a1.94,1.94,0,0,0,0-3.88H28.54v-3.1H24.67v3.14A5.76,5.76,0,0,0,25.33,29h2.55a1.88,1.88,0,1,1,0,3.76H22.79a1.94,1.94,0,0,0,0,3.88h1.88v3.13h3.87V36.64a5.76,5.76,0,0,0-.66-11.48Z"/><path class="cls-2" d="M26.6,10.55a17,17,0,0,1,8.92,2.54l.63.39,2.08-3.26-.64-.4A20.91,20.91,0,0,0,5.68,27.6a19.23,19.23,0,0,0,.13,2.22l.07.68H9.79l-.11-.84a17.37,17.37,0,0,1-.13-2.06A17.07,17.07,0,0,1,26.6,10.55Z"/><path class="cls-2" d="M47.18,22.84l-.12-.62H43.12l.18.91a16.89,16.89,0,0,1,.36,3.47A17,17,0,0,1,18,41.3l-.62-.37-2.09,3.26.67.4a20.91,20.91,0,0,0,31.58-18A21.4,21.4,0,0,0,47.18,22.84Z"/></svg>