<svg xmlns="http://www.w3.org/2000/svg" width="60" height="60" viewBox="0 0 60 60">
    <g fill="none" fill-rule="evenodd">
        <path stroke="#2B3954" d="M16.89 21.989l.006.055 1.065 12.036a2.145 2.145 0 0 0 2.321 1.946 2.136 2.136 0 0 0 1.944-2.315l-.615-6.947 20.272 16.999a2.139 2.139 0 0 0 2.75-3.275L24.36 23.49l6.952-.6a2.136 2.136 0 0 0 1.944-2.316 2.146 2.146 0 0 0-2.321-1.946L18.89 19.669c-.601.052-1.117.292-1.508.759a2.135 2.135 0 0 0-.491 1.561z" opacity=".3"/>
        <path fill="#0D3D90" d="M15.89 18.989l.006.055 1.065 12.036a2.145 2.145 0 0 0 2.321 1.946 2.136 2.136 0 0 0 1.944-2.315l-.615-6.947 20.272 16.999a2.139 2.139 0 0 0 2.75-3.275L23.36 20.49l6.952-.6a2.136 2.136 0 0 0 1.944-2.316 2.146 2.146 0 0 0-2.321-1.946L17.89 16.669c-.601.052-1.117.292-1.508.759a2.135 2.135 0 0 0-.491 1.561z"/>
        <circle cx="30" cy="30" r="29.667" stroke="#2B3954" stroke-width=".667" opacity=".283"/>
    </g>
</svg>
