<svg xmlns="http://www.w3.org/2000/svg" width="30" height="25" viewBox="0 0 30 25">
    <path fill="#FFF" fill-rule="nonzero" d="M29.794 7.06l-5.881 5.859a.703.703 0 0 1-.995 0l-1.15-1.15a.703.703 0 0 1 .01-1.004l3.002-2.796H.703A.703.703 0 0 1 0 7.266V5.859c0-.388.315-.703.703-.703H24.78L21.78 2.36a.703.703 0 0 1-.01-1.004l1.15-1.15a.703.703 0 0 1 .994 0l5.881 5.86a.703.703 0 0 1 0 .994zM.206 18.31l5.881 5.859c.275.275.72.275.995 0l1.15-1.15a.703.703 0 0 0-.01-1.004L5.22 19.219h24.077a.703.703 0 0 0 .703-.703v-1.407a.703.703 0 0 0-.703-.703H5.22L8.22 13.61a.703.703 0 0 0 .01-1.004l-1.15-1.15a.703.703 0 0 0-.994 0l-5.881 5.86a.703.703 0 0 0 0 .994z"/>
</svg>
