<svg xmlns="http://www.w3.org/2000/svg" width="60" height="60" viewBox="0 0 60 60">
    <g fill="none" fill-rule="evenodd">
        <g fill-rule="nonzero">
            <path stroke="#2B3954" stroke-width=".667" d="M47.744 24.215l-7.32 7.372a.868.868 0 0 1-1.237 0l-1.43-1.447a.891.891 0 0 1 .012-1.263l3.735-3.518H11.542a.88.88 0 0 1-.875-.885v-1.769a.88.88 0 0 1 .875-.885h29.962l-3.735-3.517a.891.891 0 0 1-.013-1.264l1.431-1.447a.868.868 0 0 1 1.238 0l7.319 7.372a.892.892 0 0 1 0 1.251zM10.923 38.37l7.319 7.372a.868.868 0 0 0 1.237 0l1.431-1.447a.891.891 0 0 0-.012-1.263l-3.736-3.518h29.963a.88.88 0 0 0 .875-.885V36.86a.88.88 0 0 0-.875-.885H17.162l3.736-3.517a.891.891 0 0 0 .012-1.264l-1.43-1.447a.868.868 0 0 0-1.238 0l-7.32 7.372a.891.891 0 0 0 .001 1.251z" opacity=".39"/>
            <path fill="#0EBEC2" d="M49.077 22.882l-7.319 7.372a.868.868 0 0 1-1.237 0l-1.431-1.447a.891.891 0 0 1 .012-1.264l3.736-3.517H12.875A.88.88 0 0 1 12 23.14v-1.77a.88.88 0 0 1 .875-.884h29.963l-3.736-3.518a.891.891 0 0 1-.012-1.263l1.43-1.447a.868.868 0 0 1 1.238 0l7.32 7.372a.892.892 0 0 1-.001 1.25zm-36.82 14.154l7.318 7.372a.868.868 0 0 0 1.238 0l1.43-1.447a.891.891 0 0 0-.012-1.264l-3.735-3.517h29.962a.88.88 0 0 0 .875-.885v-1.77a.88.88 0 0 0-.875-.884H18.496l3.735-3.518a.891.891 0 0 0 .013-1.263l-1.431-1.447a.868.868 0 0 0-1.238 0l-7.319 7.372a.891.891 0 0 0 0 1.25z"/>
        </g>
        <circle cx="30" cy="30" r="29.667" stroke="#2B3954" stroke-width=".667" opacity=".283"/>
    </g>
</svg>
