<svg xmlns="http://www.w3.org/2000/svg" width="125" height="120" viewBox="0 0 125 120">
    <g fill="none" fill-rule="evenodd">
        <rect width="122.313" height="118" x="1" y="1" fill="#FFF" stroke="#1965E9" stroke-width="2" rx="16"/>
        <path fill="#1965E9" fill-rule="nonzero" d="M58.175 15.862c2.234-1.15 5.633-1.15 7.866 0l22.793 11.73c1.345.692 2.083 1.723 2.216 2.788h.022v58.96c-.03 1.161-.776 2.315-2.238 3.068l-22.793 11.73c-2.233 1.15-5.632 1.15-7.866 0l-22.792-11.73c-1.456-.75-2.155-1.911-2.19-3.068a4.044 4.044 0 0 1 0-.293l-.001-58.305a2.96 2.96 0 0 1 0-.188l.001-.173h.01c.102-1.077.807-2.082 2.18-2.79zm29.308 47.412L66.041 74.309c-2.233 1.15-5.632 1.15-7.866 0L36.78 63.298v25.925l21.395 10.953c1.197.623 2.439 1.23 3.654 1.318l.28.01c1.277.005 2.517-.628 3.775-1.226l21.6-11.149V63.274zM29.486 88.058c0 2.259.27 3.744.804 4.79.444.867 1.11 1.53 2.324 2.335l.07.046c.266.175.56.359.917.574l.422.252 1.294.761-1.857 2.991-1.448-.852-.244-.146a32.047 32.047 0 0 1-1.09-.681c-3.462-2.275-4.754-4.754-4.78-9.913v-.157h3.588zm30.829-40.587c-.166.055-.322.12-.464.193l-22.792 11.73a2.524 2.524 0 0 0-.069.036l-.019.01.036.02.052.028 22.792 11.73c.142.073.298.137.464.193zm3.587 0v23.94c.166-.056.322-.12.464-.193l22.792-11.73.068-.036.02-.011-.036-.02-.052-.028-22.792-11.73a3.307 3.307 0 0 0-.464-.192zm23.581-12.908L67.037 45.085l20.446 10.522V34.563zm-50.703.024v20.996l20.398-10.498L36.78 34.587zm27.586-15.634c-1.185-.61-3.33-.61-4.515 0l-22.792 11.73a2.524 2.524 0 0 0-.069.036l-.019.011.036.02.052.028 22.792 11.73c1.185.61 3.33.61 4.515 0l22.792-11.73.068-.037.02-.01-.036-.02-.052-.028zm26.486 1.286l1.449.853.244.146c.418.252.766.468 1.09.681 3.462 2.274 4.753 4.754 4.779 9.912v.158h-3.587c0-2.26-.27-3.744-.805-4.79-.443-.867-1.109-1.53-2.323-2.336l-.07-.046c-.266-.175-.56-.358-.918-.574l-.421-.251-1.295-.762 1.857-2.99z"/>
    </g>
</svg>
