<svg xmlns="http://www.w3.org/2000/svg" width="124" height="120" viewBox="0 0 124 120">
    <g fill="none" fill-rule="evenodd">
        <rect width="121.967" height="118" x="1" y="1" fill="#FFF" stroke="#046DC2" stroke-width="2" rx="16"/>
        <path fill="#212C41" fill-rule="nonzero" d="M35.552 74.6c3.18 0 5.759 2.495 5.759 5.574 0 3.08-2.579 5.575-5.76 5.575-3.18 0-5.759-2.496-5.759-5.575s2.579-5.575 5.76-5.575m0-2.787c-4.771 0-8.64 3.744-8.64 8.362 0 4.619 3.869 8.363 8.64 8.363 4.77 0 8.638-3.744 8.638-8.363 0-4.618-3.867-8.362-8.638-8.362z"/>
        <g fill="#046DC2" fill-rule="nonzero" transform="translate(52.776 63.45)">
            <ellipse cx="8.692" cy="8.362" rx="7.199" ry="6.969"/>
            <path d="M8.692 2.787c3.18 0 5.76 2.496 5.76 5.575 0 3.08-2.58 5.575-5.76 5.575-3.18 0-5.76-2.496-5.76-5.575s2.58-5.575 5.76-5.575m0-2.787C3.921 0 .053 3.744.053 8.362c0 4.619 3.868 8.363 8.64 8.363 4.77 0 8.638-3.744 8.638-8.363C17.33 3.744 13.463 0 8.692 0z"/>
        </g>
        <path fill="#046DC2" fill-rule="nonzero" d="M87.384 32.787c3.181 0 5.76 2.496 5.76 5.575 0 3.08-2.579 5.575-5.76 5.575-3.18 0-5.759-2.496-5.759-5.575s2.579-5.575 5.76-5.575m0-2.787c-4.772 0-8.64 3.744-8.64 8.362 0 4.619 3.868 8.363 8.64 8.363 4.77 0 8.638-3.744 8.638-8.363 0-4.618-3.867-8.362-8.639-8.362z"/>
        <path stroke="#212C41" stroke-width="2.787" d="M57.725 51.603l-18.718 24.11"/>
        <g fill="#212C41" fill-rule="nonzero" transform="translate(52.776 38.362)">
            <ellipse cx="8.692" cy="8.362" rx="7.199" ry="6.969"/>
            <path d="M8.692 2.787c3.18 0 5.76 2.496 5.76 5.575 0 3.08-2.58 5.575-5.76 5.575-3.18 0-5.76-2.496-5.76-5.575s2.58-5.575 5.76-5.575m0-2.787C3.921 0 .053 3.744.053 8.362c0 4.619 3.868 8.363 8.64 8.363 4.77 0 8.638-3.744 8.638-8.363C17.33 3.744 13.463 0 8.692 0z"/>
        </g>
        <path fill="#212C41" fill-rule="nonzero" d="M87.384 74.6c3.181 0 5.76 2.495 5.76 5.574 0 3.08-2.579 5.575-5.76 5.575-3.18 0-5.759-2.496-5.759-5.575s2.579-5.575 5.76-5.575m0-2.787c-4.772 0-8.64 3.744-8.64 8.362 0 4.619 3.868 8.363 8.64 8.363 4.77 0 8.638-3.744 8.638-8.363 0-4.618-3.867-8.362-8.639-8.362z"/>
        <path fill="#046DC2" fill-rule="nonzero" d="M74.603 57.9l10.188-13.125-3.452-2.512L71.9 54.42zM67.399 60.22l-4.778 6.155 3.453 2.511L70.1 63.7z"/>
        <path stroke="#212C41" stroke-width="2.787" d="M83.497 75.156L64.78 51.046"/>
    </g>
</svg>
