<svg xmlns="http://www.w3.org/2000/svg" width="125" height="120" viewBox="0 0 125 120">
    <g fill="none" fill-rule="evenodd">
        <rect width="124.313" height="120" fill="#202C40" rx="16"/>
        <path fill="#FFF" fill-rule="nonzero" d="M34.833 75c3.29 0 5.957 2.574 5.957 5.75s-2.667 5.75-5.957 5.75-5.956-2.574-5.956-5.75S31.544 75 34.833 75m0-2.875c-4.934 0-8.935 3.862-8.935 8.625s4 8.625 8.935 8.625c4.935 0 8.935-3.862 8.935-8.625s-4-8.625-8.935-8.625z"/>
        <g fill="#FFF" fill-rule="nonzero" transform="translate(52.703 63.5)">
            <ellipse cx="8.935" cy="8.625" rx="7.446" ry="7.188"/>
            <path d="M8.935 2.875c3.29 0 5.957 2.574 5.957 5.75s-2.667 5.75-5.957 5.75-5.957-2.574-5.957-5.75 2.667-5.75 5.957-5.75m0-2.875C4 0 0 3.862 0 8.625s4 8.625 8.935 8.625c4.935 0 8.935-3.862 8.935-8.625S13.87 0 8.935 0z"/>
        </g>
        <path fill="#FFF" fill-rule="nonzero" d="M88.443 31.875c3.29 0 5.957 2.574 5.957 5.75s-2.667 5.75-5.957 5.75-5.956-2.574-5.956-5.75 2.666-5.75 5.956-5.75m0-2.875c-4.934 0-8.935 3.862-8.935 8.625s4 8.625 8.935 8.625c4.935 0 8.935-3.862 8.935-8.625 0-2.287-.941-4.481-2.617-6.099C93.086 29.91 90.813 29 88.443 29z"/>
        <path stroke="#FFF" stroke-width="4.313" d="M57.766 51.281l-19.359 24.87"/>
        <g fill="#FFF" fill-rule="nonzero" transform="translate(52.703 37.625)">
            <ellipse cx="8.935" cy="8.625" rx="7.446" ry="7.188"/>
            <path d="M8.935 2.875c3.29 0 5.957 2.574 5.957 5.75s-2.667 5.75-5.957 5.75-5.957-2.574-5.957-5.75 2.667-5.75 5.957-5.75m0-2.875C4 0 0 3.862 0 8.625s4 8.625 8.935 8.625c4.935 0 8.935-3.862 8.935-8.625S13.87 0 8.935 0z"/>
        </g>
        <path fill="#FFF" fill-rule="nonzero" d="M88.443 75c3.29 0 5.957 2.574 5.957 5.75s-2.667 5.75-5.957 5.75-5.956-2.574-5.956-5.75S85.153 75 88.443 75m0-2.875c-4.934 0-8.935 3.862-8.935 8.625s4 8.625 8.935 8.625c4.935 0 8.935-3.862 8.935-8.625s-4-8.625-8.935-8.625zM75.224 57.776L85.76 44.239l-3.57-2.59-9.762 12.537zM67.772 60.17l-4.94 6.347 3.57 2.59 4.165-5.348z"/>
        <path stroke="#FFF" stroke-width="4.313" d="M84.422 75.575L65.063 50.706"/>
    </g>
</svg>
