<svg id="Layer_1" data-name="Layer 1" xmlns="http://www.w3.org/2000/svg" viewBox="0 0 33.12 39.64"><defs><style>.cls-1{fill:#1965E9;}</style></defs><title>fantom</title><path class="cls-1" d="M28.05,5.48,18.49.42h0a4.24,4.24,0,0,0-3.68,0L5.26,5.48a2.39,2.39,0,0,0-.81.68H4v27.3h.4a2.47,2.47,0,0,0,.82.7l9.56,5.06a4,4,0,0,0,1.83.42,4,4,0,0,0,1.84-.42l9.56-5.06a2.54,2.54,0,0,0,.81-.7h.41V6.16h-.42A2.35,2.35,0,0,0,28.05,5.48ZM27,17.26l-7.37-3.9L27,9.46Zm-.62,2.28L17.8,24.06V15ZM15.5,24.06,7,19.53,15.5,15Zm-9.16-6.8V9.46l7.36,3.9Zm0,4.55L14.24,26l-7.9,4.19Zm20.63,0v8.37L19.06,26ZM15.89,2.45a1.91,1.91,0,0,1,1.52,0l8.94,4.73-8.94,4.74a2,2,0,0,1-1.52,0L7,7.18Zm1.52,34.74a2,2,0,0,1-1.52,0L7,32.45l8.93-4.73a2,2,0,0,1,1.52,0l8.94,4.74Z"/><path class="cls-1" d="M30,2l-.23-.14-1.2,2,.25.15c1.61,1,2,1.2,2,3.27h2.3C33.12,4,32,3.16,30,2Z"/><path class="cls-1" d="M2.3,32H0c0,3.21,1.12,4,3.11,5.24l.24.14,1.19-2-.24-.15C2.68,34.31,2.3,34.07,2.3,32Z"/></svg>