<svg id="Layer_1" data-name="Layer 1" xmlns="http://www.w3.org/2000/svg" viewBox="0 0 39.71 49.41"><defs><style>.cls-1{fill:#fff;}</style></defs><title>fantom-logo-icon-white</title><path class="cls-1" d="M17.67.47A5.15,5.15,0,0,1,22,.47L34.46,6.91a2.06,2.06,0,0,1,1.21,1.53h0V40.81a2,2,0,0,1-1.23,1.68L22,48.93a5.15,5.15,0,0,1-4.31,0L5.19,42.49A2,2,0,0,1,4,40.81V8.44H4A2,2,0,0,1,5.19,6.91Zm16,26L22,32.56a5.15,5.15,0,0,1-4.31,0L6,26.51V40.74l11.71,6a5.56,5.56,0,0,0,2,.72h.16A4.16,4.16,0,0,0,21.58,47l.31-.15,11.83-6.12ZM2,40.1a5.85,5.85,0,0,0,.44,2.63A3.47,3.47,0,0,0,3.68,44l0,0c.14.1.3.2.5.32l.23.13.71.42-1,1.64-.79-.46L3.21,46l-.59-.38C.72,44.38,0,43,0,40.19V40.1ZM18.84,17.83l-.25.1L6.11,24.37l0,0h0l12.48,6.44.25.11Zm2,0V31l.25-.11,12.48-6.44,0,0h0l0,0h0L21.06,17.93a1.09,1.09,0,0,0-.25-.1Zm12.91-7.09L22.53,16.52l11.19,5.77V10.74ZM6,10.75V22.28l11.17-5.76Zm15.1-8.58a3.21,3.21,0,0,0-2.47,0L6.11,8.61l0,0h0L18.59,15.1a3.12,3.12,0,0,0,2.47,0L33.54,8.66l0,0h0l0,0h0Zm14.51.71.79.46.13.08.6.38c1.9,1.25,2.6,2.61,2.62,5.44v.09h-2A5.88,5.88,0,0,0,37.3,6.7,3.43,3.43,0,0,0,36,5.41l0,0-.5-.32-.23-.13-.71-.42,1-1.64Z"/></svg>