<svg xmlns="http://www.w3.org/2000/svg" viewBox="0 0 266.73 78.35"><defs><style>.cls-1{fill:#fff;}</style></defs><title>FantomWallet</title><g id="Layer_1" data-name="Layer 1"><polygon class="cls-1" points="0 40.09 8.46 40.09 8.46 23.29 31.29 23.29 31.29 14.82 8.46 14.82 8.46 8.46 35.95 8.46 35.95 0 0 0 0 40.09"/><path class="cls-1" d="M52.18,0,35.38,40.09h9.25L49,29.66h16.5L70,40.09h9.25L62,0Zm-.54,23.28,5.44-13,5.64,13Z"/><polygon class="cls-1" points="115.23 25 95.17 0 85.62 0 85.62 40.09 94.09 40.09 94.09 15.07 114.14 40.09 123.69 40.09 123.69 0 115.23 0 115.23 25"/><polygon class="cls-1" points="133.09 8.46 146.83 8.46 146.83 40.09 155.29 40.09 155.29 8.46 169.04 8.46 169.04 0 133.09 0 133.09 8.46"/><path class="cls-1" d="M205.25,0H182a6.06,6.06,0,0,0-4.47,1.85,6.09,6.09,0,0,0-1.87,4.49V33.77A6.39,6.39,0,0,0,182,40.12h23.26a6.17,6.17,0,0,0,4.5-1.87,6.09,6.09,0,0,0,1.84-4.48V6.36A6.3,6.3,0,0,0,205.25,0Zm-2.12,31.63h-19V8.48h19Z"/><polygon class="cls-1" points="257.96 0.02 243.46 18.54 228.96 0.02 220.19 0.02 220.19 40.12 228.66 40.12 228.66 13.34 243.46 32.26 258.26 13.34 258.26 40.12 266.73 40.12 266.73 0.02 257.96 0.02"/><path class="cls-1" d="M21.63,61.16h1.95l3.82,13,4.25-13H33l4.24,13,3.82-13h2L38,78.35H36.73L32.31,65.06,27.89,78.35H26.66Z"/><path class="cls-1" d="M76.94,61.16h1.48L85.7,78.35H83.63l-1.78-4.24H73.51l-1.77,4.24H69.67Zm4.17,11.18-3.43-8.19-3.43,8.19Z"/><path class="cls-1" d="M116,61.16h1.92V76.58H125v1.77h-9Z"/><path class="cls-1" d="M155.31,61.16h1.92V76.58h7.08v1.77h-9Z"/><path class="cls-1" d="M194.66,61.16h9.72v1.78h-7.79v5.45h7.32v1.78h-7.32v6.41h8v1.77h-9.89Z"/><path class="cls-1" d="M238.48,62.94H233.8V61.16h11.3v1.78h-4.69V78.35h-1.93Z"/></g></svg>