<svg xmlns="http://www.w3.org/2000/svg" xmlns:xlink="http://www.w3.org/1999/xlink" width="183" height="40" viewBox="0 0 183 40">
    <defs>
        <path id="a" d="M1.04 31.379h30.148v7.241H1.04z"/>
    </defs>
    <g fill="none" fill-rule="evenodd">
        <g transform="translate(4.128 1.38)">
            <path stroke="#FFF" stroke-width="2.299" d="M16.987.285l9.559 5.062c.716.38.716.995 0 1.375l-9.559 5.062c-.717.38-1.879.38-2.596 0L4.833 6.722c-.717-.38-.717-.995 0-1.375L14.39.285c.717-.38 1.88-.38 2.596 0zM16.987 12.638l9.559 5.062c.716.38.716.995 0 1.375l-9.559 5.062c-.717.38-1.879.38-2.596 0l-9.558-5.062c-.717-.38-.717-.995 0-1.375l9.558-5.062c.717-.38 1.88-.38 2.596 0z"/>
            <mask id="b" fill="#fff">
                <use xlink:href="#a"/>
            </mask>
            <path stroke="#FFF" stroke-width="2.299" d="M16.987 25.559l9.559 5.062c.716.38.716.995 0 1.375l-9.559 5.062c-.717.38-1.879.38-2.596 0l-9.558-5.062c-.717-.38-.717-.995 0-1.375l9.558-5.062c.717-.38 1.88-.38 2.596 0z" mask="url(#b)"/>
            <path stroke="#FFF" stroke-width="2.299" d="M28.218 1.654C30.09 2.79 31.01 3.216 31.01 6.056M2.98 35.263C1.107 34.127.187 33.7.187 30.86"/>
            <path stroke="#FFF" stroke-linecap="square" stroke-width="2.299" d="M4.224 31.166V6.167M27.154 31.166V6.167M15.689 24.067V12.424"/>
        </g>
        <path fill="#FFF" fill-rule="nonzero" d="M51.614 33.563V15.936h4.87v-3.228h-4.87v-2.317c0-2.62 1.142-3.931 3.426-3.931.66 0 1.362.11 2.105.33V3.357c-.908-.276-1.912-.413-3.013-.413-2.12 0-3.763.606-4.933 1.82s-1.754 2.98-1.754 5.297v2.648H43.44v3.228h4.004v17.627h4.169zm17.13.29c1.596 0 2.993-.331 4.19-.993a6.38 6.38 0 0 0 2.704-2.855v3.558h4.128V12.708h-4.128v3.393c-.633-1.241-1.541-2.2-2.725-2.876-1.183-.676-2.573-1.014-4.169-1.014-1.788 0-3.385.456-4.788 1.366-1.403.91-2.497 2.193-3.282 3.848-.784 1.655-1.176 3.559-1.176 5.71 0 2.152.385 4.035 1.156 5.649.77 1.614 1.85 2.862 3.24 3.745 1.39.882 3.006 1.324 4.85 1.324zm.99-3.31c-1.898 0-3.377-.649-4.436-1.945-1.06-1.297-1.59-3.118-1.59-5.462 0-2.373.53-4.228 1.59-5.566 1.059-1.338 2.524-2.007 4.396-2.007 1.898 0 3.364.648 4.396 1.945 1.032 1.297 1.548 3.145 1.548 5.545 0 2.372-.516 4.214-1.548 5.524-1.032 1.31-2.484 1.966-4.355 1.966zm20.269 3.02V21.687c0-1.848.53-3.324 1.589-4.427 1.06-1.104 2.47-1.655 4.23-1.655 1.542 0 2.663.413 3.365 1.241.702.828 1.053 2.152 1.053 3.972v12.745h4.169V20.57c0-5.572-2.49-8.359-7.472-8.359-1.596 0-3.02.352-4.272 1.056-1.252.703-2.208 1.717-2.869 3.041l-.371-3.6h-3.88c.22 1.738.33 3.697.33 5.876v14.98h4.128zm28.358.29c1.155 0 2.187-.152 3.096-.455v-3.393a7.66 7.66 0 0 1-2.188.33c-1.101 0-1.961-.296-2.58-.889-.62-.593-.929-1.607-.929-3.041v-10.47h5.738v-3.227h-5.738V6.046l-4.169 1.448v5.214h-4.045v3.228h4.045v10.8c0 2.317.592 4.082 1.775 5.296 1.183 1.214 2.848 1.82 4.995 1.82zm15.933 0c2.009 0 3.784-.442 5.325-1.324 1.541-.883 2.731-2.138 3.57-3.766.84-1.627 1.26-3.53 1.26-5.71s-.42-4.09-1.26-5.731c-.839-1.642-2.029-2.904-3.57-3.786-1.541-.883-3.316-1.325-5.325-1.325-2.036 0-3.825.442-5.366 1.325-1.541.882-2.731 2.144-3.57 3.786-.84 1.641-1.26 3.552-1.26 5.73 0 2.18.42 4.084 1.26 5.711.839 1.628 2.029 2.883 3.57 3.766 1.54.882 3.33 1.324 5.366 1.324zm-.041-3.31c-1.9 0-3.364-.635-4.396-1.904s-1.548-3.131-1.548-5.586c0-2.4.523-4.248 1.568-5.545 1.046-1.297 2.518-1.945 4.417-1.945 1.871 0 3.323.648 4.355 1.945 1.032 1.297 1.548 3.145 1.548 5.545 0 2.455-.51 4.317-1.527 5.586-1.019 1.269-2.49 1.904-4.417 1.904zm19.194 3.02V21.77c0-1.903.468-3.407 1.404-4.51.935-1.104 2.201-1.655 3.797-1.655 1.376 0 2.374.413 2.993 1.241.619.828.929 2.138.929 3.931v12.786h4.169V21.77c0-1.903.46-3.407 1.383-4.51.921-1.104 2.18-1.655 3.776-1.655 1.376 0 2.374.413 2.993 1.241.62.828.929 2.138.929 3.931v12.786h4.169V20.57c0-5.572-2.312-8.359-6.935-8.359-1.54 0-2.924.36-4.148 1.076a7.066 7.066 0 0 0-2.786 2.938c-.991-2.676-3.096-4.014-6.316-4.014-1.514 0-2.834.345-3.963 1.035-1.128.69-1.995 1.669-2.6 2.938l-.372-3.476h-3.88c.22 1.738.33 3.697.33 5.876v14.98h4.128z"/>
    </g>
</svg>
