<svg xmlns="http://www.w3.org/2000/svg" width="124" height="120" viewBox="0 0 124 120">
    <g fill="none" fill-rule="evenodd">
        <rect width="124" height="120" fill="#1965E9" rx="16"/>
        <path fill="#FFF" fill-rule="nonzero" d="M58.03 15.862c2.227-1.15 5.617-1.15 7.845 0l22.735 11.73c1.342.692 2.079 1.723 2.211 2.788h.022v58.96c-.03 1.161-.774 2.315-2.233 3.068l-22.735 11.73c-2.228 1.15-5.618 1.15-7.846 0l-22.735-11.73c-1.453-.75-2.15-1.911-2.184-3.068a4.054 4.054 0 0 1 0-.293l-.002-58.305a2.967 2.967 0 0 1 0-.188l.002-.173h.01c.1-1.077.804-2.082 2.174-2.79zm29.233 47.411L65.875 74.309c-2.228 1.15-5.618 1.15-7.846 0L36.687 63.298v25.925l21.342 10.953c1.194.623 2.432 1.23 3.644 1.318l.28.01c1.078.004 2.13-.448 3.188-.95l.578-.276 21.544-11.149V63.273zM29.412 88.058c0 2.259.269 3.744.802 4.79.443.867 1.106 1.53 2.318 2.335l.07.046c.265.175.558.359.915.574l.42.252 1.291.761-1.852 2.991-1.445-.852-.243-.146a31.954 31.954 0 0 1-1.087-.681c-3.454-2.275-4.742-4.754-4.767-9.913v-.157h3.578zm30.75-40.587c-.165.055-.32.12-.462.193l-22.734 11.73a2.516 2.516 0 0 0-.069.036l-.019.01.036.02.052.028L59.7 71.218c.142.073.297.137.462.192zm3.58 0v23.94c.166-.056.32-.12.462-.193l22.735-11.73.068-.036.02-.011-.036-.02-.052-.028-22.735-11.73a3.293 3.293 0 0 0-.462-.192zm23.521-12.909L66.87 45.085l20.394 10.523V34.562zm-50.576.025v20.996l20.347-10.498-20.347-10.498zm27.517-15.634c-1.182-.61-3.321-.61-4.504 0l-22.734 11.73a2.515 2.515 0 0 0-.069.036l-.019.011.036.02.052.028L59.7 42.508c1.183.61 3.322.61 4.504 0l22.735-11.73.068-.037.02-.01-.036-.02-.052-.028zm26.42 1.286l1.445.853.243.146c.418.252.764.468 1.087.681 3.454 2.274 4.742 4.754 4.767 9.912v.158h-3.578c0-2.26-.269-3.744-.802-4.79-.443-.867-1.106-1.53-2.318-2.336l-.07-.046a27.907 27.907 0 0 0-.915-.574l-.42-.251-1.291-.762 1.852-2.99z"/>
    </g>
</svg>
