<svg id="Layer_1" data-name="Layer 1" xmlns="http://www.w3.org/2000/svg" viewBox="0 0 999.88 220.16"><defs><style>.cls-1{fill:#fff;}</style></defs><title>FANTOM_LOGO_White</title><polygon class="cls-1" points="231.72 52.11 231.72 165.99 255.72 165.99 255.72 118.11 320.72 118.11 320.72 94.11 255.72 94.11 255.72 75.95 333.88 75.95 333.88 52.11 231.72 52.11"/><path class="cls-1" d="M411.88,52.11H384.05L336.55,166h26.17l13-29.88h45.66l13,29.88h26.5Zm-29.33,66L398.38,81l16,37.08Z"/><polygon class="cls-1" points="478.88 52.11 478.88 165.99 503.05 165.99 503.05 95.78 559.05 165.99 586.72 165.99 586.72 52.11 561.72 52.11 562.05 122.28 505.72 52.11 478.88 52.11"/><polygon class="cls-1" points="612.72 52.11 612.72 76.78 651.05 76.78 651.05 165.99 675.72 165.99 675.72 76.78 714.55 76.78 714.55 52.11 612.72 52.11"/><path class="cls-1" d="M821,52.11H756.23a18.51,18.51,0,0,0-18.51,18.51h0v76.86A18.51,18.51,0,0,0,756.23,166H821a18.51,18.51,0,0,0,18.51-18.51h0V70.62A18.51,18.51,0,0,0,821,52.11Zm-5.16,90h-54v-66h54Z"/><polygon class="cls-1" points="867.88 52.11 867.88 165.99 892.88 165.99 892.88 90.95 933.88 143.78 975.88 91.28 975.88 165.99 999.88 165.99 999.88 52.11 975.05 52.11 933.88 104.11 893.55 52.11 867.88 52.11"/><path id="Path_1144" data-name="Path 1144" class="cls-1" d="M79.56,75.88l40.12-23.21V99Zm40.12,98.94L66.8,205.4,13.89,174.84V121.06L66.8,151.61l52.88-30.55ZM13.89,52.67,54.05,75.88,13.89,99.09Zm59.27,34.2,40.16,23.21L73.16,133.25ZM60.42,133.25,20.3,110,60.42,86.81Zm53-91.62L66.87,68.53h0L20.22,41.61,66.8,14.71ZM1.15,37.9V182.25L66.8,220.16l65.65-37.94V37.9L66.8,0Z"/></svg>