<svg xmlns="http://www.w3.org/2000/svg" viewBox="0 0 9 16.04" width="9" height="16.04">
  <defs>
    <style>
      .cls-1 {
        fill: #fff;
      }
    </style>
  </defs>
  <path id="Path_2" class="cls-1" d="M4.5,16.04h0L0,13.278V2.762L4.5,0,9,2.762V13.275L4.5,16.039ZM.873,8.823v3.92L4.5,14.969,8.127,12.74V8.823L4.5,11.049Zm3.19-2.491L1.312,8.02,4.061,9.708l0-3.377Zm.873,0V9.707L7.689,8.02ZM.873,3.839V7.216L3.626,5.528Zm7.254,0L5.374,5.528,8.125,7.215l0-3.378ZM4.5,1.072,1.306,3.032,4.5,4.992l3.192-1.96Z" transform="translate(0 0)"/>
</svg>
