<svg id="Capa_1" data-name="Capa 1" xmlns="http://www.w3.org/2000/svg" viewBox="0 0 284.49 380.83"><defs><style>.cls-1{fill:#fff;}</style></defs><title>Address</title><path class="cls-1" d="M320.16,30.86H272.92V12.5a12.5,12.5,0,1,0-25,0V30.86h-45V12.5a12.5,12.5,0,0,0-25,0V30.86h-45V12.5a12.5,12.5,0,1,0-25,0V30.86H60.67a12.5,12.5,0,0,0-12.5,12.5v325a12.5,12.5,0,0,0,12.5,12.5H320.16a12.5,12.5,0,0,0,12.5-12.5v-325A12.5,12.5,0,0,0,320.16,30.86Zm-12.5,325H73.17v-300h34.75V70.45a12.5,12.5,0,1,0,25,0V55.86h45V70.45a12.5,12.5,0,1,0,25,0V55.86h45V70.45a12.5,12.5,0,1,0,25,0V55.86h34.74v300Z" transform="translate(-48.17 0)"/><path class="cls-1" d="M264.42,139.76h-148a12.5,12.5,0,0,0,0,25h148a12.5,12.5,0,0,0,0-25Z" transform="translate(-48.17 0)"/><path class="cls-1" d="M264.42,209.76h-148a12.5,12.5,0,0,0,0,25h148a12.5,12.5,0,0,0,0-25Z" transform="translate(-48.17 0)"/><path class="cls-1" d="M264.42,279.76h-148a12.5,12.5,0,0,0,0,25h148a12.5,12.5,0,1,0,0-25Z" transform="translate(-48.17 0)"/></svg>