<svg id="Capa_1" data-name="Capa 1" xmlns="http://www.w3.org/2000/svg" viewBox="0 0 47 47"><defs><style>.cls-1{fill:#fff;}</style></defs><title>coin</title><path class="cls-1" d="M23.5,0A23.5,23.5,0,1,0,47,23.5,23.52,23.52,0,0,0,23.5,0Zm0,40.29A16.79,16.79,0,1,1,40.29,23.5,16.81,16.81,0,0,1,23.5,40.29Z"/><path class="cls-1" d="M24.48,21.23v-5.8c3.38.06,3.35,3.33,5.34,3.33a1.83,1.83,0,0,0,1.92-1.89c0-3-4.88-4.49-7.26-4.55V10.69a.92.92,0,1,0-1.83,0v1.63c-3.82.12-7.27,2.26-7.27,6.41,0,3.39,2.74,5.37,7.27,6.19v6.39c-5.08-.22-2.42-4.43-5.84-4.43a1.76,1.76,0,0,0-1.89,1.92c0,2.42,2.57,5.5,7.73,5.63v1.88a.92.92,0,1,0,1.83,0V34.43c4.55-.28,7.6-2.36,7.6-6.45C32.08,23.28,28.51,22.09,24.48,21.23Zm-1.83-.33c-2.29-.46-3.43-1.34-3.43-2.88,0-1.31,1.35-2.53,3.43-2.59Zm1.83,10.4v-6c1.64.36,3.76,1,3.76,3S26.31,31.18,24.48,31.3Z"/></svg>