<svg id="Layer_1" data-name="Layer 1" xmlns="http://www.w3.org/2000/svg" viewBox="0 0 504.04 512"><defs><style>.cls-1{fill:#fff;}</style></defs><title>Password</title><path class="cls-1" d="M335,0c-95.42,0-173,77.63-173,173.05a171.76,171.76,0,0,0,11.21,61.4L7.67,399.93A12.61,12.61,0,0,0,4,408.84v90.55A12.61,12.61,0,0,0,16.59,512H91.21a12.63,12.63,0,0,0,8.91-3.69l25.14-25.1a12.62,12.62,0,0,0,3.7-8.93V443.41H159.8a12.62,12.62,0,0,0,12.61-12.61V418.44h12.36a12.62,12.62,0,0,0,12.61-12.62V378.69h27.14a12.58,12.58,0,0,0,8.91-3.7l40.13-40.12A171.8,171.8,0,0,0,335,346.1c95.42,0,173-77.63,173-173S430.39,0,335,0Zm0,320.87a146.72,146.72,0,0,1-59.33-12.39A12.6,12.6,0,0,0,261.76,311l-.11.1L219.3,353.47H184.77a12.61,12.61,0,0,0-12.61,12.61v27.13H159.8a12.62,12.62,0,0,0-12.61,12.61v12.36H116.35a12.62,12.62,0,0,0-12.61,12.61v38.26L86,486.78H29.2V469L183.34,314.82a11.35,11.35,0,1,0-16.05-16.06L29.2,436.85V414.07L196.9,246.36l.1-.11a12.6,12.6,0,0,0,2.53-13.87,146.71,146.71,0,0,1-12.38-59.33c0-81.51,66.31-147.83,147.83-147.83S482.8,91.54,482.8,173.05,416.48,320.87,335,320.87Z" transform="translate(-3.98 0)"/><path class="cls-1" d="M387.64,73.14a47.24,47.24,0,1,0,47.24,47.24A47.29,47.29,0,0,0,387.64,73.14Zm0,69.26a22,22,0,1,1,22-22A22,22,0,0,1,387.64,142.4Z" transform="translate(-3.98 0)"/></svg>