<svg id="Layer_1" data-name="Layer 1" xmlns="http://www.w3.org/2000/svg" viewBox="0 0 480 480"><defs><style>.cls-1{fill:#fff;}</style></defs><title>Withdraw</title><path class="cls-1" d="M472,24H8a8,8,0,0,0-8,8V208a8,8,0,0,0,8,8H120V448a8,8,0,0,0,8,8H352a8,8,0,0,0,8-8V216H472a8,8,0,0,0,8-8V32A8,8,0,0,0,472,24ZM408,136a8,8,0,0,1,0,16H360V136ZM175,376H136V336h15a24,24,0,0,1,24,24Zm-39,16H344v16H136Zm207-16H304V360a24,24,0,0,1,24-24h15Zm1-56H328a40.05,40.05,0,0,0-40,40v16H191V360a40.05,40.05,0,0,0-40-40H136V136H344ZM120,152H72a8,8,0,0,1,0-16h48Zm16,288V424H344v16ZM464,200H360V168h48a24,24,0,0,0,0-48H72a24,24,0,0,0,0,48h48v32H16V40H464Z"/><path class="cls-1" d="M240,312a80,80,0,1,0-80-80A80,80,0,0,0,240,312Zm0-144a64,64,0,1,1-64,64A64,64,0,0,1,240,168Z"/><path class="cls-1" d="M233.6,100.8a8,8,0,0,0,12.8,0l24-32A8,8,0,0,0,264,56H216a8,8,0,0,0-6.4,12.8ZM248,72l-8,10.66L232,72Z"/><path class="cls-1" d="M202.2,242.52a21,21,0,0,0,19,13.48,20,20,0,0,0,15.32-7.4l19.2-22.93c2.3-2.73,5.6-2,7.5,2.5a10.57,10.57,0,0,1-.2,8.17,5.23,5.23,0,0,1-4.24,3.66,8,8,0,1,0,0,16A21.26,21.26,0,0,0,278,242c.27-.65.4-1.35.61-2H288V224h-9.41c-.27-.84-.45-1.7-.8-2.52a21,21,0,0,0-19-13.48,20,20,0,0,0-15.32,7.4l-19.2,22.93c-2.3,2.74-5.6,2-7.5-2.5a10.57,10.57,0,0,1,.2-8.17A5.22,5.22,0,0,1,221.2,224a8,8,0,0,0,0-16A21.26,21.26,0,0,0,202,222c-.27.65-.4,1.35-.62,2H192v16h9.41C201.68,240.8,201.86,241.7,202.2,242.52Z"/></svg>