<svg xmlns="http://www.w3.org/2000/svg" viewBox="0 0 929.93 683.19" width="929.93" height="683.19">
	<g id="icon">
		<path d="M726.32,683.19H56.63c-41.66,0-69-43.51-51-81.06l113.42-236a56.55,56.55,0,0,0,0-49L5.65,81.05c-18-37.54,9.32-81,51-81H726.32A76,76,0,0,1,794.8,43.07L922.44,308.69a76,76,0,0,1,0,65.81L794.8,640.12A76,76,0,0,1,726.32,683.19Z" />
		<g className="ico">
			<path fill="#fff" d="M464.48,141.15c-110.11,0-200.2,90.2-200.2,200.44S354.37,542,464.48,542s200.2-90.2,200.2-200.45S574.59,141.15,464.48,141.15Zm0,375.83c-96.35,0-175.18-78.92-175.18-175.39S368.13,166.2,464.48,166.2s175.17,78.93,175.17,175.39S560.83,517,464.48,517Z" />
			<path fill="#fff" d="M543.31,282.71l-103.86,104L386.9,334.08a12.4,12.4,0,0,0-17.52,17.54L430.7,413a12.07,12.07,0,0,0,17.51,0L560.83,300.25a12.4,12.4,0,0,0-17.52-17.54Z" />
		</g>
	</g>
</svg>
