<svg xmlns="http://www.w3.org/2000/svg" viewBox="0 0 929.93 683.19" width="929.93" height="683.19">
	<g id="icon">
		<path fill="currentColor" d="M726.32,683.19H56.63c-41.66,0-69-43.51-51-81.06l113.42-236a56.55,56.55,0,0,0,0-49L5.65,81.05c-18-37.54,9.32-81,51-81H726.32A76,76,0,0,1,794.8,43.07L922.44,308.69a76,76,0,0,1,0,65.81L794.8,640.12A76,76,0,0,1,726.32,683.19Z" />
		<g className="ico">
			<path d="M442.29,271.92a41.61,41.61,0,0,0,2.2,4c.74,1.1,1.84,2.2,2.57,3.3a32.81,32.81,0,0,0,3.67,3.3,12.08,12.08,0,0,0,4.4,2.2,17.9,17.9,0,0,0,4.77,1.47,22.31,22.31,0,0,0,4.76.37,20.75,20.75,0,0,0,4.77-.37,13,13,0,0,0,4-1.47h.37a27,27,0,0,0,4.4-2.56,24.23,24.23,0,0,0,3.3-2.94l.37-.36a19.91,19.91,0,0,0,2.56-3.3,11.4,11.4,0,0,0,1.84-3.67c0-.37,0-.37.36-.73a23.55,23.55,0,0,0,1.47-4.77,30.93,30.93,0,0,0,0-9.54,33.74,33.74,0,0,0-1.47-4.76,20.62,20.62,0,0,0-4.4-6.6l-.73-.74a31.82,31.82,0,0,0-3.67-2.93c-1.46-.73-2.56-1.47-4-2.2a21.07,21.07,0,0,0-4.4-1.47,23,23,0,0,0-4.77-.36,19.18,19.18,0,0,0-9.17,1.83h-.36a39.79,39.79,0,0,0-4,2.2,32.54,32.54,0,0,0-3.66,2.93,24.23,24.23,0,0,0-2.94,3.3,41.86,41.86,0,0,0-2.2,4,20.28,20.28,0,0,0-1.46,4.4,22.35,22.35,0,0,0-.37,4.77,20.67,20.67,0,0,0,.37,4.76A33.37,33.37,0,0,0,442.29,271.92Z" fill="#fff" />
			<path d="M493.27,406.13h-8.44V316.29a9.46,9.46,0,0,0-9.53-9.53H436.79a9.46,9.46,0,0,0-9.53,9.53v19.8a9.47,9.47,0,0,0,9.53,9.54h7.7V406.5h-7.7a9.47,9.47,0,0,0-9.53,9.54v19.8a9.46,9.46,0,0,0,9.53,9.53h56.48a9.46,9.46,0,0,0,9.53-9.53V416A9.79,9.79,0,0,0,493.27,406.13Z" fill="#fff" />
			<path d="M465,141c-110.75,0-200.59,89.84-200.59,200.58S354.28,542.18,465,542.18s200.59-89.84,200.59-200.59S575.77,141,465,141Zm0,374.77c-96.08,0-174.19-78.11-174.19-174.19S369,167.41,465,167.41s174.18,78.11,174.18,174.18S561.11,515.78,465,515.78Z" fill="#fff" />
		</g>
	</g>
</svg>
