<svg xmlns="http://www.w3.org/2000/svg" viewBox="0 0 929.93 683.19" width="72.9" height="54">
	<g id="icon">
		<path fill="currentColor" d="M726.32,683.19H56.63c-41.66,0-69-43.51-51-81.06l113.42-236a56.55,56.55,0,0,0,0-49L5.65,81.05c-18-37.54,9.32-81,51-81H726.32A76,76,0,0,1,794.8,43.07L922.44,308.69a76,76,0,0,1,0,65.81L794.8,640.12A76,76,0,0,1,726.32,683.19Z" />
		<g className="ico">
			<path fill="white" d="M476.76,542.18H453.24a27.14,27.14,0,0,0-3.42-.66,196.73,196.73,0,0,1-93.24-31.14c-69-44.19-104.28-126.5-88.63-206.72,8.39-43,28.45-79.72,60.78-109.24,46.52-42.49,101.53-59.44,163.9-51.53,39.64,5,74.55,21.3,104.5,47.74,35.27,31.15,57.33,69.9,65.44,116.37,1.31,7.54,2.07,15.18,3.08,22.77v23.52c-.61,5.15-1.12,10.31-1.84,15.44-5.6,40-21.54,75.32-48.36,105.5-31.07,34.95-69.69,56.77-115.86,64.86C492,540.41,484.37,541.17,476.76,542.18Zm122-85.36c55.61-61.59,64.23-172.35-13.39-244.93a176.17,176.17,0,0,0-256.85,17c-64.82,78.59-43.41,178.9,2.72,227.66,13-45.89,41.88-77.48,86.09-95.41-46.67-33.38-45.61-94.14-14-127.72a84.45,84.45,0,0,1,118.79-4.16c17.6,16.17,26.92,36.53,27.14,60.38.28,29.81-12.42,53.51-36.68,71.38C557,379.06,585.63,410.79,598.8,456.82ZM468.15,518.68c4.08-.34,11.38-.7,18.63-1.58,33.63-4.07,63.51-17.05,89.8-38.34a4.9,4.9,0,0,0,1.49-3.81c-8.94-63.93-68.66-107.72-132-96.91C397,386.41,359.3,425.1,352,474.81a5.25,5.25,0,0,0,1.61,4.1C386.09,505.05,423.28,518.13,468.15,518.68Zm-2.94-166.63c33.55-.18,60.89-27.57,60.77-60.88-.12-33.62-27.67-61.06-61.18-60.93S404,257.85,404,291.18A61.13,61.13,0,0,0,465.21,352.05Z" />
		</g>
	</g>
</svg>
