<svg xmlns="http://www.w3.org/2000/svg" width="20px" height="20px" viewBox="0 0 20 20"><defs><style>.cls-1{fill:#1965e9;}</style></defs><title>downlaod</title><path class="cls-1" d="M13.85,8.8a.52.52,0,0,0-.72-.06L10.4,11.07V.55a.51.51,0,1,0-1,0V11.11L6.71,8.75A.51.51,0,1,0,6,9.52l3.47,3.07a.54.54,0,0,0,.34.12.5.5,0,0,0,.33-.12L13.8,9.52A.51.51,0,0,0,13.85,8.8Z"/><path class="cls-1" d="M17.68,20H2.32A2.26,2.26,0,0,1,0,17.77V12.71a.51.51,0,1,1,1,0v5.06a1.24,1.24,0,0,0,1.3,1.17H17.68A1.24,1.24,0,0,0,19,17.77V12.71a.51.51,0,1,1,1,0v5.06A2.26,2.26,0,0,1,17.68,20Z"/></svg>