<svg xmlns="http://www.w3.org/2000/svg" width="30px" height="30px" viewBox="0 0 30 30"><g fill="#fff"><path d="M7.92,5.52c0-1.07,0-2.07,0-3.08A2.35,2.35,0,0,1,9.1.39,2.56,2.56,0,0,1,10.45,0c3.46,0,6.92,0,10.37,0a2.44,2.44,0,0,1,2.53,2.57v9h1.16a2.45,2.45,0,0,1,2.6,2.59V24.39A2.43,2.43,0,0,1,24.53,27H18.94a.82.82,0,0,0-.51.2c-.85.72-1.68,1.46-2.51,2.19-.06.05-.11.12-.17.14a.92.92,0,0,1-.48.06.54.54,0,0,1-.25-.41c0-.61,0-1.21,0-1.82,0-.31-.09-.38-.39-.37a4.89,4.89,0,0,1-1,0,2.39,2.39,0,0,1-1.93-2.33q0-1.66,0-3.33c0-.28-.09-.34-.35-.34-2.85,0-5.7,0-8.55,0A2.44,2.44,0,0,1,.26,19.2a2.84,2.84,0,0,1-.1-.76q0-5.19,0-10.37A2.46,2.46,0,0,1,2.7,5.52H7.92Zm8,22.67a3.84,3.84,0,0,0,.3-.25c.6-.52,1.2-1,1.79-1.57a1,1,0,0,1,.72-.27h5.83a1.56,1.56,0,0,0,1.67-1.68V14.12a1.54,1.54,0,0,0-1.63-1.65H14.2a1.53,1.53,0,0,0-1.63,1.59c0,3.48,0,7,0,10.43a1.55,1.55,0,0,0,1.62,1.61H15.3c.46,0,.59.13.59.59ZM8.82,5.52h.39c1.26,0,2.51,0,3.77,0a2.51,2.51,0,0,1,2.61,2.62c0,1,0,2,0,3.08,0,.11,0,.22,0,.33h2.94a1,1,0,0,0,0-.12c0-2.1,0-4.2,0-6.3a1,1,0,0,0-1.06-1H12.19c-.35,0-.54-.2-.5-.51s.21-.39.6-.39c1.69,0,3.39,0,5.09,0a2,2,0,0,1,2.1,2.11c-.05,2,0,3.91,0,5.86v.4h3c0-.1,0-.18,0-.26,0-2.91,0-5.82,0-8.74A1.54,1.54,0,0,0,20.82.94H10.46A1.55,1.55,0,0,0,8.82,2.56c0,.53,0,1.06,0,1.6ZM7.37,10H3.6a1.17,1.17,0,0,0-.37,0,.42.42,0,0,0-.31.47.44.44,0,0,0,.42.43H9.87a8.79,8.79,0,0,1-2.13,3.67l-1.37-1.8a.46.46,0,0,0-.64-.16.47.47,0,0,0-.16.67,2.75,2.75,0,0,0,.19.28l1.31,1.66c-.1.09-.21.19-.33.28a11.74,11.74,0,0,1-3,1.72c-.35.14-.48.39-.36.67s.39.34.73.2A12.41,12.41,0,0,0,7.58,16c.18-.16.29-.14.46,0A12.27,12.27,0,0,0,11,17.86c.21.1.43.18.7.29a4.46,4.46,0,0,1,0-.52c.06-.37-.09-.55-.44-.7a10,10,0,0,1-2.75-1.77,9.71,9.71,0,0,0,2.37-4.27h1.33c.38,0,.6-.18.6-.47s-.23-.47-.61-.47H8.32V8.82c0-.36-.17-.57-.46-.58s-.48.22-.49.58S7.37,9.54,7.37,10Z"/><path d="M29.85,29.3c-.22.21-.41.51-.67.61a.68.68,0,0,1-.91-.43c-.26-.62-.51-1.24-.76-1.86s-.45-1.08-.65-1.63a.51.51,0,0,0-.56-.37c-1.84,0-3.68,0-5.52,0a.51.51,0,0,0-.55.38c-.43,1.1-.88,2.2-1.34,3.29-.24.59-.65.8-1.1.61s-.56-.62-.33-1.18l5.28-13c.15-.37.35-.66.81-.66s.64.29.79.66q2.64,6.53,5.29,13c.06.15.09.3.14.45ZM21,24.05h5l-2.52-6.19Z"/></g></svg>