<svg id="Capa_1" data-name="Capa 1" xmlns="http://www.w3.org/2000/svg"  viewBox="0 0 512 512"><title>view</title><path style="fill:#2b3954; opacity: 0.7" d="M508.74,246C504.17,239.78,395.19,92.84,256,92.84S7.82,239.78,3.25,246a16.9,16.9,0,0,0,0,19.92c4.57,6.26,113.56,153.2,252.75,153.2s248.17-147,252.74-153.2A16.87,16.87,0,0,0,508.74,246ZM256,385.41C153.47,385.41,64.67,287.87,38.38,256,64.63,224.08,153.25,126.59,256,126.59c102.52,0,191.32,97.52,217.61,129.42C447.36,287.92,358.75,385.41,256,385.41Z"/><path style="fill:#2b3954; opacity: 0.7" d="M256,166a90,90,0,1,0,90,90A90.1,90.1,0,0,0,256,166Zm0,150a60,60,0,1,1,60-60A60.07,60.07,0,0,1,256,316Z"/></svg>