<svg xmlns="http://www.w3.org/2000/svg" width="30" height="30" viewBox="0 0 30 30">
    <path fill="#FFF" fill-rule="evenodd" d="M5.484 0h19.029a5.47 5.47 0 0 1 3.874 1.61A5.474 5.474 0 0 1 30 5.487v2.431c0 1.508-.62 2.881-1.613 3.874h-.003a5.464 5.464 0 0 1-3.871 1.613H5.484a5.461 5.461 0 0 1-3.874-1.613A5.465 5.465 0 0 1 0 7.918v-2.43c0-1.51.617-2.879 1.61-3.872V1.61A5.47 5.47 0 0 1 5.484 0zm19.029 2.34H5.484c-.863 0-1.647.357-2.218.926l-.003-.003a3.148 3.148 0 0 0-.923 2.224v2.431c0 .863.357 1.65.926 2.219a3.13 3.13 0 0 0 2.218.925h19.029c.866 0 1.652-.354 2.221-.922l-.003-.003a3.125 3.125 0 0 0 .926-2.219v-2.43c0-.864-.354-1.65-.926-2.222a3.137 3.137 0 0 0-2.218-.926zm-2.434 12.87h2.434c1.502 0 2.872.618 3.868 1.614h.003l.003.003A5.47 5.47 0 0 1 30 20.698v3.815c0 1.508-.62 2.88-1.613 3.874h-.006A5.47 5.47 0 0 1 24.513 30h-2.434c-1.505 0-2.88-.62-3.874-1.613v-.006a5.462 5.462 0 0 1-1.61-3.868v-3.815c0-1.508.617-2.878 1.61-3.871v-.006a5.47 5.47 0 0 1 3.874-1.61zm2.434 2.344h-2.434c-.863 0-1.65.354-2.219.923h-.002a3.136 3.136 0 0 0-.923 2.221v3.815c0 .866.354 1.65.923 2.221l.002-.003a3.135 3.135 0 0 0 2.219.926h2.434c.863 0 1.65-.354 2.221-.923l-.003-.003a3.135 3.135 0 0 0 .926-2.218v-3.815c0-.866-.354-1.653-.92-2.219l-.006-.005a3.127 3.127 0 0 0-2.218-.92zM5.484 15.211h3.818a5.47 5.47 0 0 1 3.874 1.61 5.482 5.482 0 0 1 1.61 3.877v3.815a5.462 5.462 0 0 1-1.61 3.868l-.006.006A5.47 5.47 0 0 1 9.302 30H5.484a5.47 5.47 0 0 1-3.868-1.613H1.61A5.47 5.47 0 0 1 0 24.513v-3.815c0-1.508.617-2.878 1.61-3.871v-.006a5.47 5.47 0 0 1 3.874-1.61zm3.818 2.343H5.484a3.14 3.14 0 0 0-2.218.923h-.003a3.136 3.136 0 0 0-.923 2.221v3.815c0 .863.357 1.65.926 2.218v.003a3.134 3.134 0 0 0 2.218.923h3.818c.863 0 1.65-.354 2.219-.923a3.137 3.137 0 0 0 .925-2.221v-3.815c0-.863-.354-1.65-.925-2.219a3.13 3.13 0 0 0-2.219-.925z"/>
</svg>
