<svg xmlns="http://www.w3.org/2000/svg" width="38" height="30" viewBox="0 0 38 30">
    <path fill="#FFF" fill-rule="nonzero" d="M33.281 20.867c-1.119 0-2.127.43-2.883 1.117l-4.582-2.535c.264-.691.434-1.429.434-2.211 0-3.51-2.936-6.35-6.563-6.35-.492 0-.972.061-1.43.164l-1.886-3.913c.879-.749 1.442-1.832 1.442-3.05 0-2.257-1.887-4.083-4.22-4.083-2.331 0-4.218 1.826-4.218 4.082 0 2.257 1.887 4.083 4.219 4.083.052 0 .105-.011.158-.017l1.963 4.066c-1.565 1.156-2.59 2.965-2.59 5.018 0 3.51 2.936 6.35 6.563 6.35a6.641 6.641 0 0 0 4.617-1.842l4.816 2.665c-.023.176-.058.357-.058.539 0 2.256 1.886 4.082 4.218 4.082S37.5 27.206 37.5 24.95c0-2.257-1.887-4.083-4.219-4.083zM13.594 5.444c-.774 0-1.406-.613-1.406-1.361 0-.749.632-1.361 1.406-1.361.773 0 1.406.612 1.406 1.36 0 .75-.633 1.362-1.406 1.362zm6.094 15.423c-2.069 0-3.75-1.627-3.75-3.63 0-2 1.681-3.628 3.75-3.628 2.068 0 3.75 1.627 3.75 3.629s-1.682 3.629-3.75 3.629zM33.28 26.31c-.773 0-1.406-.612-1.406-1.36 0-.749.633-1.361 1.406-1.361.774 0 1.407.612 1.407 1.36 0 .75-.633 1.361-1.407 1.361zM30.094 11.5l-1.125-1.452-2.813 2.041 1.125 1.452 2.813-2.042zm3.656-.613c2.068 0 3.75-1.627 3.75-3.629S35.818 3.63 33.75 3.63 30 5.256 30 7.259c0 2 1.682 3.628 3.75 3.628zM8.906 18.145h2.813v-1.814H8.906v1.814zM3.75 13.61c-2.068 0-3.75 1.627-3.75 3.629s1.682 3.629 3.75 3.629 3.75-1.627 3.75-3.63c0-2-1.682-3.628-3.75-3.628z"/>
</svg>
