<svg xmlns="http://www.w3.org/2000/svg" width="30" height="30" viewBox="0 0 30 30">
    <path fill="#FFF" fill-rule="evenodd" d="M18.373 30a1.17 1.17 0 0 1-1.171-1.168 1.17 1.17 0 0 1 1.17-1.167h6.142c.865 0 1.652-.353 2.222-.92l-.002-.002c.57-.57.924-1.354.924-2.214V5.552c0-.856-.35-1.63-.917-2.193A3.237 3.237 0 0 0 24.5 2.41l-6.057-.085a1.165 1.165 0 0 1-1.152-1.177A1.165 1.165 0 0 1 18.471 0l6.057.085a5.58 5.58 0 0 1 3.87 1.622A5.41 5.41 0 0 1 30 5.552v18.977a5.45 5.45 0 0 1-1.61 3.865h-.005A5.475 5.475 0 0 1 24.514 30h-6.141zm.912-15.786l-.021-.02-4.676-4.664a1.173 1.173 0 0 0-1.656 0 1.166 1.166 0 0 0 0 1.65l2.699 2.692H1.17A1.17 1.17 0 0 0 0 15.04a1.17 1.17 0 0 0 1.17 1.168h14.46l-2.698 2.691a1.166 1.166 0 0 0 0 1.651 1.174 1.174 0 0 0 1.655 0l4.677-4.663a1.164 1.164 0 0 0 .021-1.673z" />
</svg>
