<svg xmlns="http://www.w3.org/2000/svg" width="30" height="30" viewBox="0 0 30 30">
    <path fill="#FFF" fill-rule="evenodd" d="M0 18.373c0-.647.523-1.171 1.168-1.171a1.17 1.17 0 0 1 1.167 1.17v6.142c0 .865.353 1.652.92 2.222l.002-.002c.57.57 1.354.924 2.214.924h18.977c.856 0 1.63-.35 2.193-.917a3.237 3.237 0 0 0 .948-2.241l.085-6.057a1.165 1.165 0 0 1 1.177-1.152A1.165 1.165 0 0 1 30 18.471l-.085 6.057a5.58 5.58 0 0 1-1.622 3.87A5.41 5.41 0 0 1 24.448 30H5.471a5.45 5.45 0 0 1-3.865-1.61v-.005A5.475 5.475 0 0 1 0 24.514v-6.141zm15.786.912l.02-.021 4.664-4.676a1.173 1.173 0 0 0 0-1.656 1.166 1.166 0 0 0-1.65 0l-2.692 2.699V1.17A1.17 1.17 0 0 0 14.96 0a1.17 1.17 0 0 0-1.168 1.17v14.46l-2.691-2.698a1.166 1.166 0 0 0-1.651 0 1.174 1.174 0 0 0 0 1.655l4.663 4.677a1.164 1.164 0 0 0 1.673.021z" />
</svg>
