<svg xmlns="http://www.w3.org/2000/svg" width="30" height="30" viewBox="0 0 30 30">
    <path fill="#FFF" fill-rule="nonzero" d="M19.102 6.792l3.246-4.757A1.406 1.406 0 0 0 21.094 0H8.906a1.406 1.406 0 0 0-1.258 2.035l3.25 4.757C-.574 13.808.006 22.972.006 24.141.005 27.377 2.882 30 6.432 30H23.57c3.549 0 6.426-2.623 6.426-5.86 0-1.147.516-10.37-10.894-17.348zm-.687-3.98l-2.24 3.282h-2.35l-2.24-3.282h6.83zm8.769 21.329c0 1.68-1.621 3.047-3.614 3.047H6.432c-1.992 0-3.614-1.367-3.614-3.047C2.77 19.395 4.73 13.86 12.832 8.906h4.34c8.062 4.933 10.051 10.484 10.012 15.235z" />
</svg>
